<svg width="300" height="64" viewBox="0 0 300 64" fill="none" xmlns="http://www.w3.org/2000/svg">
<g clip-path="url(#clip0_102_186)">
<g clip-path="url(#clip1_102_186)">
<path fill-rule="evenodd" clip-rule="evenodd" d="M78.2137 51.1363C77.1667 51.1363 76.3814 50.827 75.858 50.208C75.3342 49.5896 75.0522 48.7584 75.012 47.7144C75.0039 47.4872 75 47.117 75 46.6035C75 46.0817 75.0035 45.7028 75.012 45.4673C75.0522 44.4235 75.3342 43.592 75.858 42.9736C76.3814 42.3546 77.1667 42.0454 78.2137 42.0454C78.9307 42.0454 79.5267 42.1826 80.0019 42.4559C80.4772 42.7296 80.8295 43.0746 81.0591 43.4911C81.2887 43.9079 81.4155 44.3351 81.4397 44.7725V44.798C81.4397 44.8655 81.4155 44.9202 81.367 44.962C81.3189 45.004 81.2585 45.0251 81.1859 45.0251H80.9443C80.7994 45.0251 80.7108 44.9368 80.6786 44.76C80.5256 44.0446 80.2476 43.5394 79.8449 43.2448C79.4419 42.9502 78.8983 42.8031 78.2137 42.8031C77.4567 42.8031 76.8685 43.0261 76.4495 43.472C76.0309 43.9181 75.8052 44.6043 75.7731 45.5304C75.7651 45.7576 75.7611 46.107 75.7611 46.5783C75.7611 47.0496 75.7653 47.4073 75.7731 47.6512C75.8052 48.5773 76.0309 49.2635 76.4495 49.7096C76.8685 50.1558 77.4567 50.3786 78.2137 50.3786C78.8983 50.3786 79.4419 50.2315 79.8449 49.9367C80.2476 49.642 80.5256 49.1372 80.6786 48.4218C80.7108 48.245 80.7994 48.1565 80.9443 48.1565H81.1859C81.2585 48.1565 81.3209 48.1796 81.3733 48.226C81.4257 48.2721 81.4477 48.3333 81.4397 48.409C81.4155 48.8468 81.2887 49.2739 81.0591 49.6905C80.8295 50.1071 80.4772 50.4526 80.0019 50.7259C79.5267 50.9994 78.9307 51.1363 78.2137 51.1363ZM85.7265 51.1363C83.6566 51.1363 82.5933 49.9748 82.5369 47.6512C82.529 47.3988 82.5248 47.0455 82.5248 46.591C82.5248 46.1362 82.529 45.7829 82.5369 45.5304C82.5691 44.3856 82.867 43.5186 83.431 42.9295C83.9947 42.3401 84.76 42.0454 85.7265 42.0454C86.6931 42.0454 87.4584 42.3401 88.022 42.9295C88.586 43.5186 88.884 44.3856 88.9164 45.5304C88.9324 46.0353 88.9403 46.3886 88.9403 46.591C88.9403 46.793 88.9324 47.1467 88.9164 47.6512C88.8598 49.9748 87.7966 51.1363 85.7265 51.1363ZM85.7265 50.3786C86.4516 50.3786 87.0294 50.1494 87.4605 49.6905C87.8914 49.2319 88.123 48.5311 88.1551 47.5881C88.1712 47.0834 88.1793 46.7511 88.1793 46.591C88.1793 46.4309 88.1712 46.0985 88.1551 45.5935C88.123 44.6509 87.8891 43.95 87.4544 43.4911C87.0194 43.0323 86.4434 42.8031 85.7265 42.8031C85.0098 42.8031 84.4339 43.0323 83.9989 43.4911C83.5637 43.95 83.3302 44.6509 83.2981 45.5935C83.29 45.8462 83.2858 46.1785 83.2858 46.591C83.2858 47.003 83.2901 47.3358 83.2981 47.5881C83.3302 48.5311 83.5617 49.2319 83.9927 49.6905C84.4239 50.1494 85.0016 50.3786 85.7265 50.3786ZM90.7745 51.0101C90.694 51.0101 90.6295 50.9847 90.5811 50.9344C90.533 50.8838 90.5087 50.8161 90.5087 50.7323V42.4621C90.5087 42.3779 90.533 42.3083 90.5811 42.2537C90.6295 42.1992 90.694 42.1717 90.7745 42.1717H91.0283C91.1331 42.1717 91.2175 42.2222 91.282 42.3231L95.7403 49.4445V42.4621C95.7403 42.3779 95.7644 42.3083 95.8127 42.2537C95.8611 42.1992 95.9256 42.1717 96.0061 42.1717H96.2237C96.3123 42.1717 96.3807 42.1969 96.4289 42.2475C96.4773 42.2978 96.5015 42.3697 96.5015 42.4621V50.7196C96.5015 50.8036 96.4773 50.873 96.4289 50.9279C96.3807 50.9825 96.3164 51.0101 96.2357 51.0101H95.97C95.8652 51.0101 95.7806 50.9594 95.7162 50.8585L91.2701 43.7626V50.7323C91.2701 50.8161 91.2439 50.8838 91.1915 50.9344C91.1391 50.9847 91.0727 51.0101 90.992 51.0101H90.7745ZM100.958 51.1363C100.329 51.1363 99.7834 51.029 99.3205 50.8143C98.8572 50.5996 98.5028 50.3198 98.257 49.9748C98.0115 49.6294 97.8805 49.259 97.8645 48.8635C97.8645 48.7962 97.8888 48.7371 97.9372 48.6865C97.9853 48.6362 98.0457 48.6109 98.1183 48.6109H98.3598C98.5048 48.6109 98.5936 48.6951 98.6256 48.8635C98.682 49.2677 98.9035 49.6211 99.2903 49.9243C99.6768 50.227 100.233 50.3786 100.958 50.3786C101.723 50.3786 102.293 50.2334 102.667 49.9434C103.042 49.6528 103.229 49.2463 103.229 48.7246C103.229 48.4048 103.138 48.1417 102.957 47.9356C102.776 47.7294 102.512 47.5485 102.166 47.3926C101.819 47.2367 101.296 47.0411 100.595 46.8055C99.975 46.5948 99.4894 46.3886 99.1391 46.1865C98.7887 45.9847 98.529 45.7367 98.3598 45.442C98.1907 45.1473 98.1062 44.7725 98.1062 44.3184C98.1062 43.8889 98.2168 43.5018 98.4384 43.1568C98.66 42.8113 98.9801 42.5401 99.3989 42.3421C99.8177 42.1445 100.317 42.0454 100.897 42.0454C101.493 42.0454 102.005 42.1572 102.432 42.38C102.858 42.6034 103.181 42.8853 103.398 43.2259C103.616 43.5669 103.733 43.9101 103.749 44.2551C103.749 44.3223 103.726 44.3814 103.682 44.432C103.638 44.4825 103.575 44.5077 103.495 44.5077H103.253C103.197 44.5077 103.14 44.4885 103.084 44.4509C103.028 44.4131 102.995 44.3476 102.987 44.2551C102.939 43.8344 102.724 43.4871 102.341 43.2131C101.958 42.9397 101.477 42.8031 100.897 42.8031C100.277 42.8031 99.7834 42.9295 99.417 43.182C99.0506 43.4343 98.8673 43.813 98.8673 44.3184C98.8673 44.6462 98.9499 44.9177 99.1149 45.1326C99.2801 45.3473 99.5278 45.5323 99.858 45.6883C100.188 45.8438 100.676 46.0311 101.32 46.25C101.98 46.4687 102.496 46.6793 102.867 46.8814C103.237 47.0833 103.517 47.3276 103.706 47.6135C103.896 47.8997 103.99 48.2702 103.99 48.7246C103.99 49.4822 103.72 50.0736 103.181 50.4985C102.641 50.9236 101.9 51.1363 100.958 51.1363ZM107.395 51.0101C107.314 51.0101 107.25 50.9847 107.202 50.9344C107.153 50.8838 107.129 50.8161 107.129 50.7323V42.9295H104.737C104.656 42.9295 104.592 42.9043 104.544 42.8537C104.495 42.8031 104.471 42.7356 104.471 42.6517V42.4621C104.471 42.3779 104.495 42.3083 104.544 42.2537C104.592 42.1992 104.656 42.1717 104.737 42.1717H110.27C110.359 42.1717 110.428 42.1969 110.476 42.2475C110.524 42.2978 110.548 42.3697 110.548 42.4621V42.6517C110.548 42.7356 110.522 42.8031 110.47 42.8537C110.417 42.9043 110.351 42.9295 110.27 42.9295H107.89V50.7323C107.89 50.8161 107.864 50.8838 107.812 50.9344C107.76 50.9847 107.693 51.0101 107.612 51.0101H107.395ZM111.923 51.0101C111.843 51.0101 111.778 50.9847 111.73 50.9344C111.682 50.8838 111.658 50.8161 111.658 50.7323V42.4621C111.658 42.3779 111.682 42.3083 111.73 42.2537C111.778 42.1992 111.843 42.1717 111.923 42.1717H114.739C115.608 42.1717 116.289 42.3862 116.781 42.8159C117.272 43.245 117.517 43.8804 117.517 44.7221C117.517 45.3873 117.36 45.9237 117.047 46.3318C116.732 46.7402 116.281 47.0158 115.693 47.1592L117.639 50.6186C117.663 50.669 117.674 50.7154 117.674 50.7575C117.674 50.8247 117.65 50.8838 117.602 50.9344C117.553 50.9847 117.498 51.0101 117.433 51.0101H117.287C117.167 51.0101 117.076 50.9825 117.016 50.9279C116.956 50.873 116.893 50.7867 116.828 50.669L114.908 47.2723H112.419V50.7323C112.419 50.8161 112.393 50.8838 112.34 50.9344C112.288 50.9847 112.222 51.0101 112.141 51.0101H111.923ZM114.678 46.5151C115.378 46.5151 115.9 46.3659 116.243 46.0669C116.585 45.7683 116.757 45.3196 116.757 44.7221C116.757 44.1245 116.585 43.6764 116.243 43.3775C115.9 43.0788 115.378 42.9295 114.678 42.9295H112.419V46.5151H114.678ZM122.082 51.1363C121.075 51.1363 120.305 50.8435 119.768 50.2586C119.233 49.6737 118.965 48.7835 118.965 47.5881V42.4621C118.965 42.3779 118.989 42.3083 119.037 42.2537C119.086 42.1992 119.15 42.1717 119.231 42.1717H119.448C119.536 42.1717 119.606 42.1969 119.653 42.2475C119.702 42.2978 119.726 42.3697 119.726 42.4621V47.6262C119.726 48.5521 119.932 49.2423 120.342 49.6969C120.753 50.1512 121.333 50.3786 122.082 50.3786C122.823 50.3786 123.399 50.1512 123.81 49.6969C124.22 49.2423 124.426 48.5521 124.426 47.6262V42.4621C124.426 42.3697 124.452 42.2978 124.505 42.2475C124.557 42.1969 124.624 42.1717 124.705 42.1717H124.922C125.002 42.1717 125.066 42.1992 125.115 42.2537C125.164 42.3083 125.188 42.3779 125.188 42.4621V47.5881C125.188 48.7921 124.922 49.6843 124.39 50.2648C123.858 50.8458 123.089 51.1363 122.082 51.1363ZM129.897 51.1363C128.85 51.1363 128.065 50.827 127.541 50.208C127.017 49.5896 126.735 48.7584 126.695 47.7144C126.688 47.4872 126.683 47.117 126.683 46.6035C126.683 46.0817 126.688 45.7028 126.695 45.4673C126.735 44.4235 127.017 43.592 127.541 42.9736C128.065 42.3546 128.85 42.0454 129.897 42.0454C130.614 42.0454 131.21 42.1826 131.685 42.4559C132.16 42.7296 132.513 43.0746 132.742 43.4911C132.972 43.9079 133.099 44.3351 133.123 44.7725V44.798C133.123 44.8655 133.099 44.9202 133.05 44.962C133.002 45.004 132.942 45.0251 132.869 45.0251H132.627C132.483 45.0251 132.394 44.9368 132.361 44.76C132.209 44.0446 131.931 43.5394 131.528 43.2448C131.125 42.9502 130.582 42.8031 129.897 42.8031C129.14 42.8031 128.551 43.0261 128.133 43.472C127.714 43.9181 127.489 44.6043 127.456 45.5304C127.448 45.7576 127.444 46.107 127.444 46.5783C127.444 47.0496 127.449 47.4073 127.456 47.6512C127.489 48.5773 127.714 49.2635 128.133 49.7096C128.551 50.1558 129.14 50.3786 129.897 50.3786C130.582 50.3786 131.125 50.2315 131.528 49.9367C131.931 49.642 132.209 49.1372 132.361 48.4218C132.394 48.245 132.483 48.1565 132.627 48.1565H132.869C132.942 48.1565 133.005 48.1796 133.057 48.226C133.109 48.2721 133.131 48.3333 133.123 48.409C133.099 48.8468 132.972 49.2739 132.742 49.6905C132.513 50.1071 132.16 50.4526 131.685 50.7259C131.21 50.9994 130.614 51.1363 129.897 51.1363ZM136.66 51.0101C136.58 51.0101 136.516 50.9847 136.467 50.9344C136.419 50.8838 136.395 50.8161 136.395 50.7323V42.9295H134.002C133.922 42.9295 133.858 42.9043 133.809 42.8537C133.761 42.8031 133.736 42.7356 133.736 42.6517V42.4621C133.736 42.3779 133.761 42.3083 133.809 42.2537C133.858 42.1992 133.922 42.1717 134.002 42.1717H139.536C139.625 42.1717 139.693 42.1969 139.742 42.2475C139.79 42.2978 139.814 42.3697 139.814 42.4621V42.6517C139.814 42.7356 139.787 42.8031 139.735 42.8537C139.683 42.9043 139.617 42.9295 139.536 42.9295H137.156V50.7323C137.156 50.8161 137.13 50.8838 137.077 50.9344C137.025 50.9847 136.959 51.0101 136.878 51.0101H136.66ZM141.19 51.0101C141.108 51.0101 141.044 50.9847 140.995 50.9344C140.948 50.8838 140.923 50.8161 140.923 50.7323V42.4496C140.923 42.3654 140.948 42.2978 140.995 42.2475C141.044 42.1969 141.108 42.1717 141.19 42.1717H141.419C141.499 42.1717 141.564 42.1969 141.613 42.2475C141.66 42.2978 141.684 42.3654 141.684 42.4496V50.7323C141.684 50.8161 141.66 50.8838 141.613 50.9344C141.564 50.9847 141.499 51.0101 141.419 51.0101H141.19ZM146.467 51.1363C144.397 51.1363 143.333 49.9748 143.277 47.6512C143.269 47.3988 143.265 47.0455 143.265 46.591C143.265 46.1362 143.269 45.7829 143.277 45.5304C143.309 44.3856 143.607 43.5186 144.17 42.9295C144.735 42.3401 145.5 42.0454 146.467 42.0454C147.433 42.0454 148.199 42.3401 148.762 42.9295C149.326 43.5186 149.624 44.3856 149.657 45.5304C149.673 46.0353 149.681 46.3886 149.681 46.591C149.681 46.793 149.673 47.1467 149.657 47.6512C149.6 49.9748 148.536 51.1363 146.467 51.1363ZM146.467 50.3786C147.192 50.3786 147.769 50.1494 148.201 49.6905C148.632 49.2319 148.864 48.5311 148.895 47.5881C148.911 47.0834 148.919 46.7511 148.919 46.591C148.919 46.4309 148.911 46.0985 148.895 45.5935C148.864 44.6509 148.63 43.95 148.194 43.4911C147.759 43.0323 147.183 42.8031 146.467 42.8031C145.75 42.8031 145.174 43.0323 144.739 43.4911C144.303 43.95 144.07 44.6509 144.039 45.5935C144.031 45.8462 144.026 46.1785 144.026 46.591C144.026 47.003 144.031 47.3358 144.039 47.5881C144.07 48.5311 144.302 49.2319 144.733 49.6905C145.164 50.1494 145.742 50.3786 146.467 50.3786ZM151.515 51.0101C151.434 51.0101 151.369 50.9847 151.322 50.9344C151.273 50.8838 151.249 50.8161 151.249 50.7323V42.4621C151.249 42.3779 151.273 42.3083 151.322 42.2537C151.369 42.1992 151.434 42.1717 151.515 42.1717H151.768C151.873 42.1717 151.958 42.2222 152.023 42.3231L156.481 49.4445V42.4621C156.481 42.3779 156.505 42.3083 156.553 42.2537C156.601 42.1992 156.666 42.1717 156.747 42.1717H156.964C157.052 42.1717 157.12 42.1969 157.169 42.2475C157.217 42.2978 157.242 42.3697 157.242 42.4621V50.7196C157.242 50.8036 157.217 50.873 157.169 50.9279C157.12 50.9825 157.057 51.0101 156.976 51.0101H156.71C156.606 51.0101 156.52 50.9594 156.456 50.8585L152.01 43.7626V50.7323C152.01 50.8161 151.984 50.8838 151.932 50.9344C151.88 50.9847 151.812 51.0101 151.732 51.0101H151.515ZM165.141 51.1363C164.094 51.1363 163.309 50.827 162.785 50.208C162.261 49.5896 161.98 48.7584 161.94 47.7144C161.931 47.4872 161.927 47.117 161.927 46.6035C161.927 46.0817 161.931 45.7028 161.94 45.4673C161.98 44.4235 162.261 43.592 162.785 42.9736C163.309 42.3546 164.094 42.0454 165.141 42.0454C165.858 42.0454 166.455 42.1826 166.93 42.4559C167.405 42.7296 167.757 43.0746 167.986 43.4911C168.216 43.9079 168.343 44.3351 168.367 44.7725V44.798C168.367 44.8655 168.343 44.9202 168.294 44.962C168.247 45.004 168.186 45.0251 168.114 45.0251H167.872C167.727 45.0251 167.637 44.9368 167.606 44.76C167.452 44.0446 167.175 43.5394 166.772 43.2448C166.369 42.9502 165.826 42.8031 165.141 42.8031C164.384 42.8031 163.795 43.0261 163.377 43.472C162.958 43.9181 162.733 44.6043 162.7 45.5304C162.692 45.7576 162.689 46.107 162.689 46.5783C162.689 47.0496 162.693 47.4073 162.7 47.6512C162.733 48.5773 162.958 49.2635 163.377 49.7096C163.795 50.1558 164.384 50.3786 165.141 50.3786C165.826 50.3786 166.369 50.2315 166.772 49.9367C167.175 49.642 167.452 49.1372 167.606 48.4218C167.637 48.245 167.727 48.1565 167.872 48.1565H168.114C168.186 48.1565 168.248 48.1796 168.3 48.226C168.353 48.2721 168.375 48.3333 168.367 48.409C168.343 48.8468 168.216 49.2739 167.986 49.6905C167.757 50.1071 167.405 50.4526 166.93 50.7259C166.455 50.9994 165.858 51.1363 165.141 51.1363ZM172.653 51.1363C170.584 51.1363 169.52 49.9748 169.464 47.6512C169.456 47.3988 169.452 47.0455 169.452 46.591C169.452 46.1362 169.457 45.7829 169.464 45.5304C169.497 44.3856 169.794 43.5186 170.358 42.9295C170.922 42.3401 171.688 42.0454 172.653 42.0454C173.62 42.0454 174.386 42.3401 174.95 42.9295C175.514 43.5186 175.811 44.3856 175.843 45.5304C175.86 46.0353 175.868 46.3886 175.868 46.591C175.868 46.793 175.86 47.1467 175.843 47.6512C175.787 49.9748 174.724 51.1363 172.653 51.1363ZM172.653 50.3786C173.378 50.3786 173.957 50.1494 174.387 49.6905C174.818 49.2319 175.05 48.5311 175.082 47.5881C175.099 47.0834 175.107 46.7511 175.107 46.591C175.107 46.4309 175.099 46.0985 175.082 45.5935C175.05 44.6509 174.817 43.95 174.382 43.4911C173.947 43.0323 173.37 42.8031 172.653 42.8031C171.938 42.8031 171.361 43.0323 170.926 43.4911C170.491 43.95 170.258 44.6509 170.225 45.5935C170.217 45.8462 170.214 46.1785 170.214 46.591C170.214 47.003 170.217 47.3358 170.225 47.5881C170.258 48.5311 170.489 49.2319 170.92 49.6905C171.351 50.1494 171.928 50.3786 172.653 50.3786ZM177.714 51.0101C177.633 51.0101 177.567 50.9847 177.515 50.9344C177.463 50.8838 177.436 50.8161 177.436 50.7323V42.4621C177.436 42.3697 177.463 42.2978 177.515 42.2475C177.567 42.1969 177.633 42.1717 177.714 42.1717H178.016C178.136 42.1717 178.222 42.2265 178.269 42.3359L181.012 47.9167L183.767 42.3359C183.824 42.2265 183.908 42.1717 184.022 42.1717H184.31C184.4 42.1717 184.468 42.1969 184.516 42.2475C184.565 42.2978 184.589 42.3697 184.589 42.4621V50.7323C184.589 50.8161 184.562 50.8838 184.51 50.9344C184.458 50.9847 184.392 51.0101 184.31 51.0101H184.093C184.012 51.0101 183.949 50.9847 183.9 50.9344C183.851 50.8838 183.827 50.8161 183.827 50.7323V43.8889L181.52 48.6362C181.448 48.8046 181.323 48.8886 181.145 48.8886H180.88C180.702 48.8886 180.577 48.8046 180.506 48.6362L178.198 43.8889V50.7323C178.198 50.8161 178.173 50.8838 178.125 50.9344C178.076 50.9847 178.012 51.0101 177.932 51.0101H177.714ZM186.773 51.0101C186.692 51.0101 186.628 50.9847 186.58 50.9344C186.532 50.8838 186.508 50.8161 186.508 50.7323V42.4621C186.508 42.3779 186.532 42.3083 186.58 42.2537C186.628 42.1992 186.692 42.1717 186.773 42.1717H189.709C190.572 42.1717 191.25 42.3967 191.745 42.8472C192.241 43.2976 192.489 43.9435 192.489 44.7852C192.489 45.627 192.241 46.2729 191.745 46.7234C191.25 47.1737 190.572 47.3988 189.709 47.3988H187.268V50.7323C187.268 50.8161 187.242 50.8838 187.19 50.9344C187.138 50.9847 187.072 51.0101 186.991 51.0101H186.773ZM189.649 46.6415C190.341 46.6415 190.861 46.4836 191.208 46.1678C191.553 45.852 191.727 45.3914 191.727 44.7852C191.727 44.1794 191.553 43.7185 191.208 43.4027C190.861 43.0873 190.341 42.9295 189.649 42.9295H187.268V46.6415H189.649ZM192.691 51.0101C192.627 51.0101 192.57 50.9847 192.522 50.9344C192.474 50.8838 192.45 50.8247 192.45 50.7575L192.474 50.6186L195.531 42.4243C195.595 42.2561 195.711 42.1717 195.881 42.1717H196.292C196.461 42.1717 196.577 42.2561 196.642 42.4243L199.699 50.6186L199.723 50.7575C199.723 50.8247 199.699 50.8838 199.65 50.9344C199.602 50.9847 199.545 51.0101 199.482 51.0101H199.24C199.167 51.0101 199.109 50.9889 199.065 50.9469C199.02 50.905 198.99 50.8626 198.974 50.8208L198.225 48.8004H193.948L193.199 50.8208C193.183 50.8626 193.152 50.905 193.108 50.9469C193.064 50.9889 193.006 51.0101 192.933 51.0101H192.691ZM194.237 48.0428H197.935L196.086 43.0684L194.237 48.0428ZM201.062 51.0101C200.981 51.0101 200.917 50.9847 200.868 50.9344C200.82 50.8838 200.795 50.8161 200.795 50.7323V42.4621C200.795 42.3779 200.82 42.3083 200.868 42.2537C200.917 42.1992 200.981 42.1717 201.062 42.1717H201.316C201.42 42.1717 201.505 42.2222 201.569 42.3231L206.027 49.4445V42.4621C206.027 42.3779 206.052 42.3083 206.1 42.2537C206.149 42.1992 206.212 42.1717 206.293 42.1717H206.511C206.6 42.1717 206.668 42.1969 206.716 42.2475C206.765 42.2978 206.789 42.3697 206.789 42.4621V50.7196C206.789 50.8036 206.765 50.873 206.716 50.9279C206.668 50.9825 206.603 51.0101 206.523 51.0101H206.257C206.152 51.0101 206.068 50.9594 206.003 50.8585L201.557 43.7626V50.7323C201.557 50.8161 201.531 50.8838 201.478 50.9344C201.426 50.9847 201.36 51.0101 201.28 51.0101H201.062ZM211.269 51.0101C211.189 51.0101 211.124 50.9847 211.076 50.9344C211.027 50.8838 211.003 50.8161 211.003 50.7323V47.6387L208.055 42.5885C208.023 42.5212 208.007 42.4663 208.007 42.4243C208.007 42.357 208.031 42.2978 208.08 42.2475C208.127 42.1969 208.184 42.1717 208.249 42.1717H208.49C208.602 42.1717 208.695 42.2347 208.768 42.3611L211.39 46.8183L214.011 42.3611C214.084 42.2347 214.177 42.1717 214.29 42.1717H214.531C214.595 42.1717 214.652 42.1969 214.7 42.2475C214.749 42.2978 214.773 42.357 214.773 42.4243C214.773 42.4663 214.757 42.5212 214.724 42.5885L211.776 47.6387V50.7323C211.776 50.8161 211.75 50.8838 211.698 50.9344C211.645 50.9847 211.58 51.0101 211.499 51.0101H211.269Z" fill="#C5C7C8"/>
<path fill-rule="evenodd" clip-rule="evenodd" d="M75 35.0049H80.7102C84.3327 35.0049 86.6967 32.7766 86.6967 29.6255V28.3835C86.6967 26.0282 85.3152 24.1502 83.0742 23.3864C84.9161 22.5583 86.0214 20.999 86.0214 19.0252V17.6564C86.0214 14.76 83.6574 12.7225 80.0348 12.7225H75V35.0049ZM80.6487 24.2456C83.3195 24.2456 84.9774 25.9011 84.9774 28.1928V29.5615C84.9774 31.8853 83.3195 33.4766 80.6487 33.4766H76.7499V24.2456H80.6487ZM79.9733 14.2505C82.6442 14.2505 84.3022 15.7145 84.3022 17.7203V19.1847C84.3022 21.2534 82.6442 22.7175 79.9733 22.7175H76.7499V14.2505H79.9733ZM99.0994 19.0252H100.819V18.1661C100.819 14.8235 98.4853 12.5 95.1085 12.5C91.8542 12.5 89.4903 14.6326 89.4903 18.1019C89.4903 20.1394 90.4111 21.922 92.069 22.9408L97.411 26.092C98.6695 26.7603 99.345 28.0972 99.345 29.6572C99.345 32.1717 97.5951 33.6997 95.2006 33.6997C92.6525 33.6997 90.964 31.9806 90.964 29.5297V28.5427H89.2447V29.5297C89.2447 32.9041 91.67 35.2273 95.2006 35.2273C98.6083 35.2273 101.064 33.0632 101.064 29.5932C101.064 27.5564 100.143 25.7098 98.5468 24.7867L93.1742 21.6355C91.9158 20.9351 91.2402 19.5982 91.2402 18.0069C91.2402 15.5556 92.8366 14.0278 95.1085 14.0278C97.4722 14.0278 99.0994 15.7145 99.0994 18.1661V19.0252ZM104.779 35.0049H106.529V12.7225H104.779V35.0049ZM114.787 35.0049H116.752L109.046 23.4816L116.322 12.7225H114.357L107.143 23.4816L114.787 35.0049ZM135.448 28.3202V29.5297C135.448 32.0128 133.606 33.6997 131.058 33.6997C128.48 33.6997 126.668 32.0128 126.668 29.5615V18.1661C126.668 15.7145 128.48 14.0278 131.058 14.0278C133.606 14.0278 135.448 15.7145 135.448 18.1661V19.439H137.167V18.2933C137.167 14.8874 134.619 12.5 131.058 12.5C127.466 12.5 124.918 14.8874 124.918 18.2933V29.4341C124.918 32.8401 127.466 35.2273 131.058 35.2273C134.619 35.2273 137.167 32.8401 137.167 29.4341V28.3202H135.448ZM140.882 35.0049L142.417 29.4341H150.399L151.934 35.0049H153.745L147.328 12.7225H145.486L139.101 35.0049H140.882ZM146.408 15.0466L149.969 27.9062H142.847L146.408 15.0466ZM161.789 25.5189C165.381 25.5189 167.775 23.1632 167.775 19.7256V18.5159C167.775 15.0783 165.381 12.7225 161.789 12.7225H156.232V35.0049H157.982V25.5189H161.789ZM161.758 14.2505C164.367 14.2505 166.056 15.9378 166.056 18.3885V19.8531C166.056 22.3359 164.367 24.0228 161.758 24.0228H157.982V14.2505H161.758ZM171.428 35.0049H173.178V12.7225H171.428V35.0049ZM188.927 12.7225H175.941V14.2505H181.559V35.0049H183.278V14.2505H188.927V12.7225ZM190.278 35.0049L191.812 29.4341H199.795L201.331 35.0049H203.141L196.725 12.7225H194.883L188.498 35.0049H190.278ZM195.805 15.0466L199.366 27.9062H192.243L195.805 15.0466ZM205.628 35.0049H215.33V33.4766H207.378V12.7225H205.628V35.0049ZM230.526 23.4499V24.9776H234.732V29.5297C234.732 32.0128 232.89 33.6997 230.342 33.6997C227.762 33.6997 225.952 32.0128 225.952 29.5615V18.1661C225.952 15.7145 227.762 14.0278 230.342 14.0278C232.89 14.0278 234.732 15.7145 234.732 18.1661V19.439H236.451V18.2933C236.451 14.8874 233.903 12.5 230.342 12.5C226.75 12.5 224.201 14.8874 224.201 18.2933V29.4341C224.201 32.8401 226.75 35.2273 230.342 35.2273C233.903 35.2273 236.451 32.8401 236.451 29.4341V23.4499H230.526ZM242.253 25.5189H246.306L250.849 35.0049H252.63L247.872 25.2641C250.327 24.5641 251.893 22.495 251.893 19.7256V18.5159C251.893 15.0783 249.499 12.7225 245.907 12.7225H240.503V35.0049H242.253V25.5189ZM245.876 14.2505C248.485 14.2505 250.174 15.9378 250.174 18.3885V19.8531C250.174 22.3359 248.485 24.0228 245.876 24.0228H242.253V14.2505H245.876ZM267.887 29.4341V18.2933C267.887 14.8874 265.34 12.5 261.778 12.5C258.186 12.5 255.639 14.8874 255.639 18.2933V29.4341C255.639 32.8401 258.186 35.2273 261.778 35.2273C265.34 35.2273 267.887 32.8401 267.887 29.4341ZM266.168 29.5297C266.168 32.0128 264.326 33.6997 261.778 33.6997C259.2 33.6997 257.389 32.0128 257.389 29.5615V18.1661C257.389 15.7145 259.2 14.0278 261.778 14.0278C264.326 14.0278 266.168 15.7145 266.168 18.1661V29.5297ZM282.47 12.7225V29.5297C282.47 32.0128 280.628 33.6997 278.049 33.6997C275.47 33.6997 273.659 32.0128 273.659 29.5615V12.7225H271.94V29.4341C271.94 32.8401 274.458 35.2273 278.049 35.2273C281.641 35.2273 284.19 32.8401 284.19 29.4341V12.7225H282.47ZM294.014 25.5189C297.606 25.5189 300 23.1632 300 19.7256V18.5159C300 15.0783 297.606 12.7225 294.014 12.7225H288.457V35.0049H290.207V25.5189H294.014ZM293.983 14.2505C296.592 14.2505 298.281 15.9378 298.281 18.3885V19.8531C298.281 22.3359 296.592 24.0228 293.983 24.0228H290.207V14.2505H293.983Z" fill="#C5C7C8"/>
<path fill-rule="evenodd" clip-rule="evenodd" d="M27.8628 0L27.8408 0.00800561L27.8186 0V0.0157106L5.46309 7.8613C4.47203 8.21026 4.45197 9.6187 5.43357 9.99366L16.6043 14.2719C16.8482 14.3659 17.117 14.3705 17.3634 14.2858L27.6701 10.7565C27.7295 10.7361 27.7872 10.7116 27.8408 10.6823C27.8948 10.7116 27.9518 10.7361 28.0114 10.7565L38.3181 14.2858C38.5644 14.3705 38.8333 14.3659 39.077 14.2719L50.2478 9.99366C51.2297 9.6187 51.2095 8.21026 50.2186 7.8613L27.8628 0.0157106V0ZM52.6926 44.4581C54.1858 43.5431 55.0052 42.3503 55.3908 41.6292C55.4673 41.4866 55.6818 41.5451 55.6818 41.7082V52.3976C55.6818 52.4264 55.6738 52.4539 55.6607 52.4784C54.9426 53.8007 53.797 54.5873 52.7034 55.0622L52.6998 55.0634C52.2709 55.249 51.8523 55.3872 51.4672 55.4885L27.863 63.6213V63.6364L27.841 63.6286L27.8188 63.6364V63.6213L4.21486 55.4885C3.82968 55.3872 3.41107 55.249 2.9819 55.0634L2.97824 55.0622C1.88464 54.5873 0.739026 53.8007 0.0209226 52.4784C0.00799152 52.4539 0 52.4264 0 52.3976V41.7082C0 41.5451 0.214392 41.4866 0.291185 41.6292C0.676557 42.3503 1.49581 43.5431 2.98916 44.4581L27.8408 52.6662L52.6926 44.4581ZM52.6926 29.0049C54.1858 28.0897 55.0052 26.8975 55.3908 26.176C55.4673 26.0333 55.6818 26.0919 55.6818 26.2548V36.9443C55.6818 36.9728 55.6738 37.0015 55.6607 37.0253C54.9426 38.3473 53.797 39.1336 52.7034 39.6087L52.6998 39.61C52.2709 39.7959 51.8523 39.934 51.4672 40.0352L27.863 48.168V48.183L27.841 48.1755L27.8188 48.183V48.168L4.21486 40.0352C3.82968 39.934 3.41107 39.7959 2.9819 39.61L2.97824 39.6087C1.88464 39.1336 0.739026 38.3473 0.0209226 37.0253C0.00799152 37.0015 0 36.9728 0 36.9443V26.2548C0 26.0919 0.214392 26.0333 0.291185 26.176C0.676557 26.8975 1.49581 28.0897 2.98916 29.0049L27.8408 37.2128L52.6926 29.0049ZM52.6926 13.5034C54.1858 12.5881 55.0052 11.3956 55.3908 10.6746C55.4673 10.5308 55.6818 10.5903 55.6818 10.7534V21.443C55.6818 21.4703 55.6738 21.4989 55.6607 21.5236C54.9426 22.8458 53.797 23.6324 52.7034 24.1075L52.6998 24.1081C52.2709 24.2942 51.8523 24.4324 51.4672 24.5331L27.863 32.6658V32.6813L27.841 32.6735L27.8188 32.6813V32.6658L4.21486 24.5331C3.82968 24.4324 3.41107 24.2942 2.9819 24.1081L2.97824 24.1075C1.88464 23.6324 0.739026 22.8458 0.0209226 21.5236C0.00799152 21.4989 0 21.4703 0 21.443V10.7534C0 10.5903 0.214392 10.5308 0.291185 10.6746C0.676557 11.3956 1.49581 12.5881 2.98916 13.5034L27.8408 21.7114L52.6926 13.5034Z" fill="#C5C7C8"/>
</g>
</g>
<defs>
<clipPath id="clip0_102_186">
<rect width="300" height="63.6364" fill="white"/>
</clipPath>
<clipPath id="clip1_102_186">
<rect width="300" height="63.6364" fill="white"/>
</clipPath>
</defs>
</svg>
